<?xml version="1.0" encoding="utf-8"?>
<!-- Generator: Adobe Illustrator 18.0.0, SVG Export Plug-In . SVG Version: 6.00 Build 0)  -->
<!DOCTYPE svg PUBLIC "-//W3C//DTD SVG 1.1//EN" "http://www.w3.org/Graphics/SVG/1.1/DTD/svg11.dtd">
<svg version="1.1" id="Layer_1" xmlns="http://www.w3.org/2000/svg" xmlns:xlink="http://www.w3.org/1999/xlink" x="0px" y="0px"
	 viewBox="0 0 162 276.7" enable-background="new 0 0 162 276.7" xml:space="preserve">
<g>
	<g>
		<polygon fill="none" stroke="#21409A" stroke-width="6.384" stroke-miterlimit="10" points="27.8,226.2 86.4,57.8 65.2,50.4 
			13.2,221.1 13.2,258.1 		"/>
		<polygon fill="none" stroke="#21409A" stroke-width="6.384" stroke-miterlimit="10" points="152.7,258.1 153.5,226.2 103.7,50.4 
			82.6,57.8 		"/>
	</g>
	<path fill="#5FCCF5" stroke="#21409A" stroke-width="6.384" stroke-miterlimit="10" d="M109.4,59.5c0,13.8-11.2,24.9-24.9,24.9
		c-13.8,0-24.9-11.2-24.9-24.9c0-13.8,11.2-24.9,24.9-24.9C98.2,34.5,109.4,45.7,109.4,59.5z"/>
	<path fill="none" stroke="#21409A" stroke-width="6.384" stroke-miterlimit="10" d="M153.5,96.4c-18.4,17-43.1,27.5-70.2,27.5
		s-51.7-10.4-70.2-27.5"/>
	<line fill="none" stroke="#21409A" stroke-width="6.384" stroke-miterlimit="10" x1="84.5" y1="104" x2="84.5" y2="135.6"/>
	<path fill="#5FCCF5" stroke="#21409A" stroke-width="6.384" stroke-miterlimit="10" d="M84.5,34.5c2.9,0,5.7,0.5,8.3,1.4V13.4
		c0-4.6-3.7-8.3-8.3-8.3c-4.6,0-8.3,3.7-8.3,8.3V36C78.8,35.1,81.6,34.5,84.5,34.5z"/>
	<path fill="#5FCCF5" stroke="#21409A" stroke-width="6.384" stroke-miterlimit="10" d="M47.3,192.5c0,9.4-7.6,17.1-17.1,17.1
		c-9.4,0-17.1-7.6-17.1-17.1c0-9.4,7.6-17.1,17.1-17.1C39.7,175.4,47.3,183.1,47.3,192.5z"/>
</g>
</svg>
